/* XPM */
static char *_228e61f628c4a84fe958facc2668c4a[] = {
/* columns rows colors chars-per-pixel */
"30 30 2 1 ",
"  c black",
". c None",
/* pixels */
"..............................",
"..............  ..............",
"..............  ..............",
"..............  ..............",
"..............  ..............",
"..............  ..............",
"..............  ..............",
"..............  ..............",
"..............  ..............",
"..............  ..............",
"..............  ..............",
"..............................",
"..............................",
"..............................",
".          ........          .",
".          ........          .",
"..............................",
"..............................",
"..............................",
"..............  ..............",
"..............  ..............",
"..............  ..............",
"..............  ..............",
"..............  ..............",
"..............  ..............",
"..............  ..............",
"..............  ..............",
"..............  ..............",
"..............  ..............",
".............................."
};
